<svg xmlns="http://www.w3.org/2000/svg" viewBox="0 0 200 200"><defs><style>.a{fill:#fff;}</style></defs><title>twitter</title><path class="a" d="M173.32,51.56a60,60,0,0,1-10.45,3.52,32.6,32.6,0,0,0,8.6-13.69h0a1.7,1.7,0,0,0-2.5-2h0A60.51,60.51,0,0,1,153,46a4.23,4.23,0,0,1-3.8-.94,32.62,32.62,0,0,0-21.6-8.16,34.83,34.83,0,0,0-10.34,1.6A31.62,31.62,0,0,0,96,61.29a34.6,34.6,0,0,0-.78,12,1.17,1.17,0,0,1-.29.91,1.21,1.21,0,0,1-.9.41h-.12A85.59,85.59,0,0,1,35,43.2h0a1.71,1.71,0,0,0-2.8.22h0A32.68,32.68,0,0,0,37.53,83.1a29,29,0,0,1-7.45-2.88h0a1.7,1.7,0,0,0-2.53,1.47h0a32.67,32.67,0,0,0,19.07,30.12h-.7a30,30,0,0,1-5.5-.52h0a1.71,1.71,0,0,0-2,2.19h0a32.73,32.73,0,0,0,25.85,22.26A60.23,60.23,0,0,1,30.57,146H26.8a2.51,2.51,0,0,0-2.45,1.88,2.6,2.6,0,0,0,1.24,2.86,89.65,89.65,0,0,0,45,12.14,90.82,90.82,0,0,0,38.49-8.16,85,85,0,0,0,28.15-21.1,92.65,92.65,0,0,0,17.25-28.88,91.29,91.29,0,0,0,5.86-31.6v-.5a5.53,5.53,0,0,1,2.08-4.32,64.71,64.71,0,0,0,13-14.25h0a1.71,1.71,0,0,0-2.11-2.51Z"/></svg>